<!-- Generator: Adobe Illustrator 24.0.2, SVG Export Plug-In  -->
<svg version="1.1" xmlns="http://www.w3.org/2000/svg" xmlns:xlink="http://www.w3.org/1999/xlink" x="0px" y="0px" width="18.88px"
     height="18.88px" viewBox="0 0 18.88 18.88" style="enable-background:new 0 0 18.88 18.88;" xml:space="preserve">
<style type="text/css">
	.st0{fill:#FFA412;}
</style>
    <defs>
</defs>
    <g>
	<g>
		<path class="st0" d="M5.39,15.07l-1.57-1.57c-0.08-0.08-0.21-0.12-0.32-0.11c-0.12,0.01-0.22,0.08-0.29,0.17l-3.15,4.72
			c-0.1,0.16-0.08,0.36,0.05,0.5c0.07,0.08,0.18,0.11,0.28,0.11c0.08,0,0.15-0.02,0.22-0.07l4.72-3.15c0.1-0.07,0.16-0.17,0.17-0.29
			C5.52,15.27,5.48,15.15,5.39,15.07z"/>
        <path class="st0" d="M12.93,7.67c-0.02-0.03-0.04-0.06-0.06-0.08l-1.57-1.57c-0.02-0.02-0.05-0.04-0.08-0.06
			c-0.67-0.39-1.44-0.45-2.16-0.45c-1.43,0-2.77,0.71-3.57,1.91C5.41,7.51,5.39,7.63,5.42,7.74c0.03,0.11,0.11,0.2,0.21,0.25
			c0.41,0.2,0.67,0.61,0.67,1.06c0,0.65-0.53,1.18-1.18,1.18c-0.57,0-1.06-0.41-1.16-0.98C3.94,9.13,3.87,9.03,3.77,8.97
			C3.67,8.92,3.55,8.9,3.44,8.94C1.38,9.66,0,11.6,0,13.77c0,2.82,2.29,5.11,5.11,5.11c2.17,0,4.11-1.38,4.83-3.44
			c0.04-0.11,0.03-0.23-0.03-0.33c-0.06-0.1-0.16-0.17-0.27-0.19c-0.57-0.1-0.98-0.58-0.98-1.16c0-0.65,0.53-1.18,1.18-1.18
			c0.45,0,0.86,0.26,1.06,0.67c0.05,0.1,0.14,0.18,0.25,0.21c0.11,0.03,0.23,0.01,0.32-0.05c1.2-0.81,1.91-2.15,1.91-3.57
			C13.38,9.11,13.32,8.35,12.93,7.67z M5.9,12.59H5.11c-0.22,0-0.39-0.18-0.39-0.39c0-0.22,0.18-0.39,0.39-0.39h0.62l1.46-1.46
			c0.15-0.15,0.4-0.15,0.56,0s0.15,0.4,0,0.56l-1.57,1.57C6.11,12.55,6.01,12.59,5.9,12.59z M8.54,11.69l-1.46,1.46v0.62
			c0,0.22-0.18,0.39-0.39,0.39s-0.39-0.18-0.39-0.39v-0.79c0-0.1,0.04-0.2,0.11-0.28l1.57-1.57c0.15-0.15,0.4-0.15,0.56,0
			C8.69,11.28,8.69,11.53,8.54,11.69z"/>
        <path class="st0" d="M17.2,2.48l-0.79-0.79c-0.15-0.15-0.38-0.15-0.54-0.02L8.79,7.97C8.71,8.04,8.66,8.14,8.66,8.25
			s0.04,0.21,0.11,0.29l1.57,1.57c0.07,0.07,0.17,0.11,0.28,0.11c0,0,0.01,0,0.01,0c0.11,0,0.21-0.05,0.28-0.13l6.29-7.08
			C17.35,2.86,17.34,2.62,17.2,2.48z"/>
        <path class="st0" d="M18.77,0.9l-0.79-0.79C17.87,0,17.7-0.03,17.55,0.03c-0.15,0.06-0.24,0.2-0.24,0.36c0,0.06-0.06,0.1-0.39,0.2
			c-0.44,0.15-1.19,0.39-1.19,1.37c0,0.22,0.18,0.39,0.39,0.39c0.11,0,0.21-0.04,0.28-0.11l0.23,0.23
			c-0.07,0.07-0.12,0.17-0.12,0.28c0,0.22,0.18,0.39,0.39,0.39c1.02,0,1.26-0.76,1.4-1.21c0.04-0.12,0.1-0.33,0.17-0.36
			c0.16,0,0.3-0.1,0.36-0.24C18.92,1.18,18.88,1.01,18.77,0.9z"/>
        <path class="st0" d="M16.92,4.33c-0.1,0-0.2-0.04-0.28-0.11l-0.39-0.39c-0.15-0.15-0.15-0.4,0-0.56c0.15-0.15,0.4-0.15,0.56,0
			l0.39,0.39c0.15,0.15,0.15,0.4,0,0.56C17.12,4.29,17.02,4.33,16.92,4.33z"/>
        <path class="st0" d="M16.13,5.11c-0.1,0-0.2-0.04-0.28-0.11l-0.39-0.39c-0.15-0.15-0.15-0.4,0-0.56c0.15-0.15,0.4-0.15,0.56,0
			l0.39,0.39c0.15,0.15,0.15,0.4,0,0.56C16.33,5.08,16.23,5.11,16.13,5.11z"/>
        <path class="st0" d="M15.34,2.75c-0.1,0-0.2-0.04-0.28-0.11l-0.39-0.39c-0.15-0.15-0.15-0.4,0-0.56s0.4-0.15,0.56,0l0.39,0.39
			c0.15,0.15,0.15,0.4,0,0.56C15.55,2.72,15.44,2.75,15.34,2.75z"/>
        <path class="st0" d="M14.56,3.54c-0.1,0-0.2-0.04-0.28-0.11l-0.39-0.39c-0.15-0.15-0.15-0.4,0-0.56s0.4-0.15,0.56,0l0.39,0.39
			c0.15,0.15,0.15,0.4,0,0.56C14.76,3.5,14.66,3.54,14.56,3.54z"/>
	</g>
</g>
</svg>
