<!-- Generator: Adobe Illustrator 24.0.2, SVG Export Plug-In  -->
<svg version="1.1" xmlns="http://www.w3.org/2000/svg" xmlns:xlink="http://www.w3.org/1999/xlink" x="0px" y="0px" width="15.77px"
     height="16.52px" viewBox="0 0 15.77 16.52" style="enable-background:new 0 0 15.77 16.52;" xml:space="preserve">
<style type="text/css">
	.st0{fill:#FFA412;}
</style>
    <defs>
</defs>
    <g>
	<path class="st0" d="M5.63,0H0.38C0.17,0,0,0.17,0,0.38v3.75c0,0.21,0.17,0.38,0.38,0.38h5.26c0.21,0,0.38-0.17,0.38-0.38V0.38
		C6.01,0.17,5.84,0,5.63,0z"/>
        <path class="st0" d="M7.89,3.75c-3.52,0-6.38,2.86-6.38,6.38s2.86,6.38,6.38,6.38s6.38-2.86,6.38-6.38S11.41,3.75,7.89,3.75z
		 M7.89,15.02C5.19,15.02,3,12.83,3,10.14s2.19-4.88,4.88-4.88s4.88,2.19,4.88,4.88S10.58,15.02,7.89,15.02z"/>
        <g>
		<path class="st0" d="M7.13,4.51c-0.21,0-0.38-0.17-0.38-0.38V2.9l-2-0.67c-0.2-0.07-0.3-0.28-0.24-0.47C4.59,1.56,4.8,1.46,5,1.52
			l2.25,0.75c0.15,0.05,0.26,0.19,0.26,0.36v1.5C7.51,4.34,7.34,4.51,7.13,4.51z"/>
	</g>
        <path class="st0" d="M15.4,0h-5.26C9.93,0,9.76,0.17,9.76,0.38v3.75c0,0.21,0.17,0.38,0.38,0.38h5.26c0.21,0,0.38-0.17,0.38-0.38
		V0.38C15.77,0.17,15.6,0,15.4,0z"/>
        <g>
		<path class="st0" d="M8.64,4.51c-0.21,0-0.38-0.17-0.38-0.38v-1.5c0-0.16,0.1-0.3,0.26-0.36l2.25-0.75
			c0.2-0.07,0.41,0.04,0.48,0.24c0.07,0.2-0.04,0.41-0.24,0.47l-2,0.67v1.23C9.01,4.34,8.84,4.51,8.64,4.51z"/>
	</g>
        <path class="st0" d="M7.89,6.01c-2.28,0-4.13,1.85-4.13,4.13s1.85,4.13,4.13,4.13s4.13-1.85,4.13-4.13S10.16,6.01,7.89,6.01z
		 M7.89,13.52c-0.62,0-1.13-0.51-1.13-1.13s0.51-1.13,1.13-1.13s1.13,0.51,1.13,1.13S8.51,13.52,7.89,13.52z"/>
        <g>
		<path class="st0" d="M3.38,16.52c-0.1,0-0.19-0.04-0.27-0.11c-0.15-0.15-0.15-0.38,0-0.53l0.75-0.75c0.15-0.15,0.38-0.15,0.53,0
			s0.15,0.38,0,0.53l-0.75,0.75C3.57,16.48,3.48,16.52,3.38,16.52z"/>
	</g>
        <g>
		<path class="st0" d="M12.39,16.52c-0.1,0-0.19-0.04-0.27-0.11l-0.75-0.75c-0.15-0.15-0.15-0.38,0-0.53c0.15-0.15,0.38-0.15,0.53,0
			l0.75,0.75c0.15,0.15,0.15,0.38,0,0.53C12.58,16.48,12.49,16.52,12.39,16.52z"/>
	</g>
</g>
</svg>
