<!-- Generator: Adobe Illustrator 24.0.2, SVG Export Plug-In  -->
<svg version="1.1" xmlns="http://www.w3.org/2000/svg" xmlns:xlink="http://www.w3.org/1999/xlink" x="0px" y="0px" width="18.59px"
     height="18.6px" viewBox="0 0 18.59 18.6" style="enable-background:new 0 0 18.59 18.6;" xml:space="preserve">
<style type="text/css">
	.st0{fill:#FFA412;}
</style>
    <defs>
</defs>
    <path class="st0" d="M18.48,1.67l-0.73-0.73c-0.01-0.02-0.03-0.03-0.04-0.05l-0.77-0.77c-0.14-0.14-0.35-0.15-0.51-0.04l-3.1,2.32
	c-0.1,0.07-0.15,0.19-0.15,0.31v0.61l-2.79,2.79C9.89,5.88,8.86,5.43,8.12,5.43l0,0C6.41,5.45,6.11,6.41,5.89,7.11
	c-0.1,0.31-0.18,0.58-0.36,0.75C5.3,8.1,4.86,8.11,4.22,8.11V8.5l0,0L4.13,8.11c-0.7,0-1.56,0-2.39,0.46
	c-0.71,0.39-1.53,1.26-1.71,2.51c-0.22,1.55,0.57,3.24,2.35,5.04c0.01,0.02,0.03,0.03,0.04,0.05c1.61,1.61,3.15,2.43,4.59,2.43
	c1.5,0,2.56-0.94,3-1.74c0.46-0.83,0.46-1.72,0.46-2.44c0-0.59,0-1.1,0.25-1.35c0.18-0.18,0.44-0.26,0.75-0.36
	c0.7-0.22,1.66-0.52,1.68-2.23c0.01-0.72-0.45-1.77-0.69-2.26l2.79-2.78h0.61c0.12,0,0.24-0.06,0.31-0.15l2.32-3.1
	C18.63,2.02,18.61,1.81,18.48,1.67z M7.74,12.4c-0.85,0-1.55-0.7-1.55-1.55S6.89,9.3,7.74,9.3s1.55,0.7,1.55,1.55
	S8.6,12.4,7.74,12.4z M5.3,14.61c-0.08,0.08-0.17,0.11-0.27,0.11c-0.1,0-0.2-0.04-0.27-0.11l-0.77-0.77c-0.15-0.15-0.15-0.4,0-0.55
	s0.4-0.15,0.55,0l0.77,0.77C5.46,14.21,5.46,14.46,5.3,14.61z"/>
</svg>
