<!-- Generator: Adobe Illustrator 24.0.2, SVG Export Plug-In  -->
<svg version="1.1" xmlns="http://www.w3.org/2000/svg" xmlns:xlink="http://www.w3.org/1999/xlink" x="0px" y="0px" width="17.25px"
     height="13.54px" viewBox="0 0 17.25 13.54" style="enable-background:new 0 0 17.25 13.54;" xml:space="preserve">
<defs>
</defs>
    <g>
	<path d="M10.96,11.08c-0.71,0.39-1.5,0.59-2.3,0.59C5.95,11.69,3.74,9.5,3.73,6.8l0-0.18L5,6.61c0.22,0,0.42-0.11,0.51-0.31
		c0.11-0.18,0.09-0.42-0.02-0.6L3.27,2.28C3.16,2.12,2.97,2.01,2.77,2.01c-0.2,0-0.38,0.11-0.49,0.27l-2.2,3.44
		c-0.11,0.18-0.12,0.4-0.01,0.6c0.11,0.18,0.29,0.31,0.51,0.31l1.27-0.01l0,0.18c0.02,3.74,3.07,6.75,6.81,6.73
		c1.11-0.01,2.21-0.28,3.17-0.82c0.45-0.24,0.63-0.82,0.37-1.27C11.97,11.02,11.41,10.84,10.96,11.08z"/>
        <path d="M17.18,7.21c-0.11-0.18-0.29-0.31-0.51-0.31L15.4,6.91l0-0.18C15.38,2.99,12.33-0.02,8.59,0C7.48,0.01,6.38,0.28,5.42,0.82
		C4.96,1.05,4.79,1.64,5.04,2.09C5.28,2.54,5.86,2.7,6.32,2.46C7,2.08,7.8,1.87,8.6,1.87c2.7-0.01,4.91,2.17,4.93,4.87l0,0.18
		l-1.27,0.01c-0.22,0-0.42,0.11-0.51,0.31c-0.11,0.18-0.09,0.42,0.02,0.6l2.22,3.42c0.11,0.16,0.29,0.27,0.49,0.27
		c0.2,0,0.38-0.11,0.49-0.27l2.2-3.44C17.27,7.63,17.29,7.41,17.18,7.21z"/>
</g>
</svg>
