<!-- Generator: Adobe Illustrator 24.0.2, SVG Export Plug-In  -->
<svg version="1.1" xmlns="http://www.w3.org/2000/svg" xmlns:xlink="http://www.w3.org/1999/xlink" x="0px" y="0px" width="84.49px"
     height="41.33px" viewBox="0 0 84.49 41.33" style="enable-background:new 0 0 84.49 41.33;" xml:space="preserve">
<style type="text/css">
	.st0{opacity:0.72;}
	.st1{fill:url(#SVGID_1_);}
	.st2{fill:url(#SVGID_2_);}
	.st3{fill:url(#SVGID_3_);}
	.st4{fill:url(#SVGID_4_);}
	.st5{fill:url(#SVGID_5_);}
	.st6{fill:url(#SVGID_6_);}
	.st7{fill:url(#SVGID_7_);}
	.st8{fill:url(#SVGID_8_);}
	.st9{fill:url(#SVGID_9_);}
	.st10{fill:url(#SVGID_10_);}
	.st11{fill:url(#SVGID_11_);}
	.st12{fill:url(#SVGID_12_);}
	.st13{fill:url(#SVGID_13_);}
	.st14{fill:url(#SVGID_14_);}
	.st15{fill:url(#SVGID_15_);}
	.st16{fill:url(#SVGID_16_);}
	.st17{fill:url(#SVGID_17_);}
	.st18{fill:url(#SVGID_18_);}
	.st19{fill:url(#SVGID_19_);}
	.st20{fill:url(#SVGID_20_);}
	.st21{fill:url(#SVGID_21_);}
	.st22{fill:url(#SVGID_22_);}
	.st23{fill:url(#SVGID_23_);}
	.st24{fill:url(#SVGID_24_);}
	.st25{fill:url(#SVGID_25_);}
	.st26{fill:url(#SVGID_26_);}
	.st27{fill:url(#SVGID_27_);}
	.st28{fill:url(#SVGID_28_);}
	.st29{fill:url(#SVGID_29_);}
	.st30{fill:url(#SVGID_30_);}
	.st31{fill:url(#SVGID_31_);}
	.st32{fill:url(#SVGID_32_);}
	.st33{fill:url(#SVGID_33_);}
	.st34{fill:url(#SVGID_34_);}
	.st35{fill:url(#SVGID_35_);}
	.st36{fill:url(#SVGID_36_);}
	.st37{opacity:0.65;}
	.st38{fill:url(#SVGID_37_);}
	.st39{fill:url(#SVGID_38_);}
	.st40{fill:url(#SVGID_39_);}
	.st41{fill:url(#SVGID_40_);}
	.st42{fill:url(#SVGID_41_);}
	.st43{fill:url(#SVGID_42_);}
	.st44{fill:url(#SVGID_43_);}
	.st45{fill:url(#SVGID_44_);}
	.st46{fill:url(#SVGID_45_);}
	.st47{fill:url(#SVGID_46_);}
	.st48{fill:url(#SVGID_47_);}
	.st49{fill:url(#SVGID_48_);}
	.st50{fill:url(#SVGID_49_);}
	.st51{fill:url(#SVGID_50_);}
	.st52{fill:url(#SVGID_51_);}
	.st53{fill:url(#SVGID_52_);}
	.st54{fill:url(#SVGID_53_);}
	.st55{fill:url(#SVGID_54_);}
	.st56{fill:url(#SVGID_55_);}
	.st57{fill:url(#SVGID_56_);}
	.st58{fill:url(#SVGID_57_);}
	.st59{fill:url(#SVGID_58_);}
	.st60{fill:url(#SVGID_59_);}
	.st61{fill:url(#SVGID_60_);}
	.st62{fill:url(#SVGID_61_);}
	.st63{fill:url(#SVGID_62_);}
	.st64{fill:url(#SVGID_63_);}
	.st65{fill:url(#SVGID_64_);}
	.st66{fill:url(#SVGID_65_);}
	.st67{fill:url(#SVGID_66_);}
	.st68{fill:url(#SVGID_67_);}
	.st69{fill:url(#SVGID_68_);}
	.st70{fill:url(#SVGID_69_);}
	.st71{fill:url(#SVGID_70_);}
	.st72{fill:url(#SVGID_71_);}
	.st73{fill:url(#SVGID_72_);}
	.st74{fill:url(#SVGID_73_);}
	.st75{fill:url(#SVGID_74_);}
	.st76{fill:url(#SVGID_75_);}
	.st77{fill:url(#SVGID_76_);}
	.st78{fill:url(#SVGID_77_);}
	.st79{fill:url(#SVGID_78_);}
	.st80{fill:url(#SVGID_79_);}
	.st81{fill:url(#SVGID_80_);}
	.st82{fill:url(#SVGID_81_);}
	.st83{fill:url(#SVGID_82_);}
	.st84{fill:url(#SVGID_83_);}
	.st85{fill:url(#SVGID_84_);}
	.st86{fill:url(#SVGID_85_);}
	.st87{fill:url(#SVGID_86_);}
	.st88{fill:url(#SVGID_87_);}
	.st89{fill:url(#SVGID_88_);}
	.st90{fill:url(#SVGID_89_);}
	.st91{fill:url(#SVGID_90_);}
	.st92{fill:url(#SVGID_91_);}
	.st93{fill:url(#SVGID_92_);}
	.st94{fill:url(#SVGID_93_);}
	.st95{fill:url(#SVGID_94_);}
	.st96{fill:url(#SVGID_95_);}
	.st97{fill:url(#SVGID_96_);}
	.st98{fill:url(#SVGID_97_);}
	.st99{fill:url(#SVGID_98_);}
	.st100{fill:url(#SVGID_99_);}
	.st101{fill:url(#SVGID_100_);}
	.st102{fill:url(#SVGID_101_);}
	.st103{fill:url(#SVGID_102_);}
	.st104{fill:url(#SVGID_103_);}
	.st105{fill:url(#SVGID_104_);}
	.st106{fill:url(#SVGID_105_);}
	.st107{fill:url(#SVGID_106_);}
	.st108{fill:url(#SVGID_107_);}
	.st109{fill:url(#SVGID_108_);}
</style>
    <defs>
</defs>
    <g>
	<g class="st0">
		<linearGradient id="SVGID_1_" gradientUnits="userSpaceOnUse" x1="20.4787" y1="31.2231" x2="20.4787" y2="6.4283">
			<stop  offset="0" style="stop-color:#02CAE6"/>
            <stop  offset="1" style="stop-color:#00E592"/>
		</linearGradient>
        <path class="st1" d="M20.48,31.22c-0.64,0-1.1-0.46-1.1-1.1V7.53c0-0.64,0.46-1.1,1.1-1.1c0.64,0,1.1,0.46,1.1,1.1v22.5
			C21.58,30.67,21.03,31.22,20.48,31.22z"/>
        <linearGradient id="SVGID_2_" gradientUnits="userSpaceOnUse" x1="25.259" y1="37.6514" x2="25.259" y2="0">
			<stop  offset="0" style="stop-color:#02CAE6"/>
            <stop  offset="1" style="stop-color:#00E592"/>
		</linearGradient>
        <path class="st2" d="M25.25,37.65c-0.64,0-1.1-0.46-1.1-1.1V1.1c0-0.64,0.46-1.1,1.1-1.1s1.1,0.46,1.1,1.1v35.36
			C26.45,37.1,25.9,37.65,25.25,37.65z"/>
        <linearGradient id="SVGID_3_" gradientUnits="userSpaceOnUse" x1="44.6307" y1="24.703" x2="44.6307" y2="12.9484">
			<stop  offset="0" style="stop-color:#02CAE6"/>
            <stop  offset="1" style="stop-color:#00E592"/>
		</linearGradient>
        <path class="st3" d="M44.63,24.7c-0.64,0-1.1-0.46-1.1-1.1v-9.55c0-0.64,0.46-1.1,1.1-1.1s1.1,0.46,1.1,1.1v9.64
			C45.73,24.24,45.27,24.7,44.63,24.7z"/>
        <linearGradient id="SVGID_4_" gradientUnits="userSpaceOnUse" x1="49.4978" y1="28.1926" x2="49.4978" y2="9.4588">
			<stop  offset="0" style="stop-color:#02CAE6"/>
            <stop  offset="1" style="stop-color:#00E592"/>
		</linearGradient>
        <path class="st4" d="M49.5,28.19c-0.64,0-1.1-0.46-1.1-1.1V10.56c0-0.64,0.46-1.1,1.1-1.1s1.1,0.46,1.1,1.1v16.53
			C50.6,27.73,50.14,28.19,49.5,28.19z"/>
        <linearGradient id="SVGID_5_" gradientUnits="userSpaceOnUse" x1="54.3649" y1="23.1418" x2="54.3649" y2="14.6014">
			<stop  offset="0" style="stop-color:#02CAE6"/>
            <stop  offset="1" style="stop-color:#00E592"/>
		</linearGradient>
        <path class="st5" d="M54.36,23.14c-0.64,0-1.1-0.46-1.1-1.1V15.7c0-0.64,0.46-1.1,1.1-1.1c0.64,0,1.1,0.46,1.1,1.1v6.34
			C55.47,22.59,54.92,23.14,54.36,23.14z"/>
        <linearGradient id="SVGID_6_" gradientUnits="userSpaceOnUse" x1="64.0074" y1="22.2235" x2="64.0074" y2="15.4279">
			<stop  offset="0" style="stop-color:#02CAE6"/>
            <stop  offset="1" style="stop-color:#00E592"/>
		</linearGradient>
        <path class="st6" d="M64.01,22.22c-0.64,0-1.1-0.46-1.1-1.1v-4.59c0-0.64,0.46-1.1,1.1-1.1c0.64,0,1.1,0.46,1.1,1.1v4.59
			C65.11,21.67,64.65,22.22,64.01,22.22z"/>
        <linearGradient id="SVGID_7_" gradientUnits="userSpaceOnUse" x1="30.1211" y1="31.8659" x2="30.1211" y2="5.7855">
			<stop  offset="0" style="stop-color:#02CAE6"/>
            <stop  offset="1" style="stop-color:#00E592"/>
		</linearGradient>
        <path class="st7" d="M30.12,31.87c-0.64,0-1.1-0.46-1.1-1.1V6.89c0-0.64,0.46-1.1,1.1-1.1c0.64,0,1.1,0.46,1.1,1.1v23.88
			C31.22,31.41,30.76,31.87,30.12,31.87z"/>
        <linearGradient id="SVGID_8_" gradientUnits="userSpaceOnUse" x1="34.9883" y1="28.1926" x2="34.9883" y2="9.4588">
			<stop  offset="0" style="stop-color:#02CAE6"/>
            <stop  offset="1" style="stop-color:#00E592"/>
		</linearGradient>
        <path class="st8" d="M34.99,28.19c-0.64,0-1.1-0.46-1.1-1.1V10.56c0-0.64,0.46-1.1,1.1-1.1s1.1,0.46,1.1,1.1v16.53
			C36.09,27.73,35.63,28.19,34.99,28.19z"/>
        <linearGradient id="SVGID_9_" gradientUnits="userSpaceOnUse" x1="39.8554" y1="31.2231" x2="39.8554" y2="6.4283">
			<stop  offset="0" style="stop-color:#02CAE6"/>
            <stop  offset="1" style="stop-color:#00E592"/>
		</linearGradient>
        <path class="st9" d="M39.86,31.22c-0.64,0-1.1-0.46-1.1-1.1V7.53c0-0.64,0.46-1.1,1.1-1.1c0.64,0,1.1,0.46,1.1,1.1v22.5
			C40.96,30.67,40.41,31.22,39.86,31.22z"/>
        <linearGradient id="SVGID_10_" gradientUnits="userSpaceOnUse" x1="15.6116" y1="25.6213" x2="15.6116" y2="12.0301">
			<stop  offset="0" style="stop-color:#02CAE6"/>
            <stop  offset="1" style="stop-color:#00E592"/>
		</linearGradient>
        <path class="st10" d="M15.61,25.62c-0.64,0-1.1-0.46-1.1-1.1V13.13c0-0.64,0.46-1.1,1.1-1.1s1.1,0.46,1.1,1.1v11.48
			C16.71,25.16,16.25,25.62,15.61,25.62z"/>
        <linearGradient id="SVGID_11_" gradientUnits="userSpaceOnUse" x1="59.2321" y1="21.2133" x2="59.2321" y2="16.5299">
			<stop  offset="0" style="stop-color:#02CAE6"/>
            <stop  offset="1" style="stop-color:#00E592"/>
		</linearGradient>
        <path class="st11" d="M59.23,21.21c-0.64,0-1.1-0.46-1.1-1.1v-2.48c0-0.64,0.46-1.1,1.1-1.1s1.1,0.46,1.1,1.1v2.48
			C60.33,20.66,59.78,21.21,59.23,21.21z"/>
        <linearGradient id="SVGID_12_" gradientUnits="userSpaceOnUse" x1="73.7416" y1="23.05" x2="73.7416" y2="14.6932">
			<stop  offset="0" style="stop-color:#02CAE6"/>
            <stop  offset="1" style="stop-color:#00E592"/>
		</linearGradient>
        <path class="st12" d="M73.74,23.05c-0.64,0-1.1-0.46-1.1-1.1V15.8c0-0.64,0.46-1.1,1.1-1.1c0.64,0,1.1,0.46,1.1,1.1v6.15
			C74.84,22.5,74.29,23.05,73.74,23.05z"/>
        <linearGradient id="SVGID_13_" gradientUnits="userSpaceOnUse" x1="78.5169" y1="21.397" x2="78.5169" y2="16.1626">
			<stop  offset="0" style="stop-color:#02CAE6"/>
            <stop  offset="1" style="stop-color:#00E592"/>
		</linearGradient>
        <path class="st13" d="M78.52,21.4c-0.64,0-1.1-0.46-1.1-1.1v-3.03c0-0.64,0.46-1.1,1.1-1.1c0.64,0,1.1,0.46,1.1,1.1v3.03
			C79.62,20.94,79.16,21.4,78.52,21.4z"/>
        <linearGradient id="SVGID_14_" gradientUnits="userSpaceOnUse" x1="83.3841" y1="19.9277" x2="83.3841" y2="17.7237">
			<stop  offset="0" style="stop-color:#02CAE6"/>
            <stop  offset="1" style="stop-color:#00E592"/>
		</linearGradient>
        <path class="st14" d="M83.38,19.93c-0.64,0-1.1-0.46-1.1-1.1l0,0c0-0.64,0.46-1.1,1.1-1.1c0.64,0,1.1,0.46,1.1,1.1
			S84.03,19.93,83.38,19.93z"/>
        <linearGradient id="SVGID_15_" gradientUnits="userSpaceOnUse" x1="1.102" y1="20.6624" x2="1.102" y2="16.989">
			<stop  offset="0" style="stop-color:#02CAE6"/>
            <stop  offset="1" style="stop-color:#00E592"/>
		</linearGradient>
        <path class="st15" d="M1.1,20.66c-0.64,0-1.1-0.46-1.1-1.1v-1.47c0-0.64,0.46-1.1,1.1-1.1s1.1,0.46,1.1,1.1v1.47
			C2.2,20.2,1.74,20.66,1.1,20.66z"/>
        <linearGradient id="SVGID_16_" gradientUnits="userSpaceOnUse" x1="10.7444" y1="21.6725" x2="10.7444" y2="16.0707">
			<stop  offset="0" style="stop-color:#02CAE6"/>
            <stop  offset="1" style="stop-color:#00E592"/>
		</linearGradient>
        <path class="st16" d="M10.74,21.67c-0.64,0-1.1-0.46-1.1-1.1v-3.4c0-0.64,0.46-1.1,1.1-1.1s1.1,0.46,1.1,1.1v3.4
			C11.85,21.12,11.39,21.67,10.74,21.67z"/>
        <linearGradient id="SVGID_17_" gradientUnits="userSpaceOnUse" x1="5.9691" y1="23.1418" x2="5.9691" y2="14.6014">
			<stop  offset="0" style="stop-color:#02CAE6"/>
            <stop  offset="1" style="stop-color:#00E592"/>
		</linearGradient>
        <path class="st17" d="M5.97,23.14c-0.64,0-1.1-0.46-1.1-1.1V15.7c0-0.64,0.46-1.1,1.1-1.1s1.1,0.46,1.1,1.1v6.34
			C7.07,22.59,6.52,23.14,5.97,23.14z"/>
        <linearGradient id="SVGID_18_" gradientUnits="userSpaceOnUse" x1="68.8745" y1="20.6624" x2="68.8745" y2="16.8972">
			<stop  offset="0" style="stop-color:#02CAE6"/>
            <stop  offset="1" style="stop-color:#00E592"/>
		</linearGradient>
        <path class="st18" d="M68.87,20.66c-0.64,0-1.1-0.46-1.1-1.1V18c0-0.64,0.46-1.1,1.1-1.1c0.64,0,1.1,0.46,1.1,1.1v1.56
			C69.98,20.2,69.52,20.66,68.87,20.66z"/>
	</g>
        <g>
		<linearGradient id="SVGID_19_" gradientUnits="userSpaceOnUse" x1="20.4787" y1="34.9034" x2="20.4787" y2="10.1085">
			<stop  offset="0" style="stop-color:#5363D2"/>
            <stop  offset="1" style="stop-color:#02CAE6"/>
		</linearGradient>
            <path class="st19" d="M20.48,34.9c-0.64,0-1.1-0.46-1.1-1.1V11.21c0-0.64,0.46-1.1,1.1-1.1c0.64,0,1.1,0.46,1.1,1.1v22.5
			C21.58,34.35,21.03,34.9,20.48,34.9z"/>
            <linearGradient id="SVGID_20_" gradientUnits="userSpaceOnUse" x1="25.259" y1="41.3317" x2="25.259" y2="3.6803">
			<stop  offset="0" style="stop-color:#5363D2"/>
                <stop  offset="1" style="stop-color:#02CAE6"/>
		</linearGradient>
            <path class="st20" d="M25.25,41.33c-0.64,0-1.1-0.46-1.1-1.1V4.78c0-0.64,0.46-1.1,1.1-1.1s1.1,0.46,1.1,1.1v35.36
			C26.45,40.78,25.9,41.33,25.25,41.33z"/>
            <linearGradient id="SVGID_21_" gradientUnits="userSpaceOnUse" x1="44.6307" y1="28.3833" x2="44.6307" y2="16.6287">
			<stop  offset="0" style="stop-color:#5363D2"/>
                <stop  offset="1" style="stop-color:#02CAE6"/>
		</linearGradient>
            <path class="st21" d="M44.63,28.38c-0.64,0-1.1-0.46-1.1-1.1v-9.55c0-0.64,0.46-1.1,1.1-1.1s1.1,0.46,1.1,1.1v9.64
			C45.73,27.92,45.27,28.38,44.63,28.38z"/>
            <linearGradient id="SVGID_22_" gradientUnits="userSpaceOnUse" x1="49.4978" y1="31.8729" x2="49.4978" y2="13.139">
			<stop  offset="0" style="stop-color:#5363D2"/>
                <stop  offset="1" style="stop-color:#02CAE6"/>
		</linearGradient>
            <path class="st22" d="M49.5,31.87c-0.64,0-1.1-0.46-1.1-1.1V14.24c0-0.64,0.46-1.1,1.1-1.1s1.1,0.46,1.1,1.1v16.53
			C50.6,31.41,50.14,31.87,49.5,31.87z"/>
            <linearGradient id="SVGID_23_" gradientUnits="userSpaceOnUse" x1="54.3649" y1="26.8221" x2="54.3649" y2="18.2817">
			<stop  offset="0" style="stop-color:#5363D2"/>
                <stop  offset="1" style="stop-color:#02CAE6"/>
		</linearGradient>
            <path class="st23" d="M54.36,26.82c-0.64,0-1.1-0.46-1.1-1.1v-6.34c0-0.64,0.46-1.1,1.1-1.1c0.64,0,1.1,0.46,1.1,1.1v6.34
			C55.47,26.27,54.92,26.82,54.36,26.82z"/>
            <linearGradient id="SVGID_24_" gradientUnits="userSpaceOnUse" x1="64.0074" y1="25.9038" x2="64.0074" y2="19.1082">
			<stop  offset="0" style="stop-color:#5363D2"/>
                <stop  offset="1" style="stop-color:#02CAE6"/>
		</linearGradient>
            <path class="st24" d="M64.01,25.9c-0.64,0-1.1-0.46-1.1-1.1v-4.59c0-0.64,0.46-1.1,1.1-1.1c0.64,0,1.1,0.46,1.1,1.1v4.59
			C65.11,25.35,64.65,25.9,64.01,25.9z"/>
            <linearGradient id="SVGID_25_" gradientUnits="userSpaceOnUse" x1="30.1211" y1="35.5462" x2="30.1211" y2="9.4657">
			<stop  offset="0" style="stop-color:#5363D2"/>
                <stop  offset="1" style="stop-color:#02CAE6"/>
		</linearGradient>
            <path class="st25" d="M30.12,35.55c-0.64,0-1.1-0.46-1.1-1.1V10.57c0-0.64,0.46-1.1,1.1-1.1c0.64,0,1.1,0.46,1.1,1.1v23.88
			C31.22,35.09,30.76,35.55,30.12,35.55z"/>
            <linearGradient id="SVGID_26_" gradientUnits="userSpaceOnUse" x1="34.9883" y1="31.8729" x2="34.9883" y2="13.139">
			<stop  offset="0" style="stop-color:#5363D2"/>
                <stop  offset="1" style="stop-color:#02CAE6"/>
		</linearGradient>
            <path class="st26" d="M34.99,31.87c-0.64,0-1.1-0.46-1.1-1.1V14.24c0-0.64,0.46-1.1,1.1-1.1s1.1,0.46,1.1,1.1v16.53
			C36.09,31.41,35.63,31.87,34.99,31.87z"/>
            <linearGradient id="SVGID_27_" gradientUnits="userSpaceOnUse" x1="39.8554" y1="34.9034" x2="39.8554" y2="10.1085">
			<stop  offset="0" style="stop-color:#5363D2"/>
                <stop  offset="1" style="stop-color:#02CAE6"/>
		</linearGradient>
            <path class="st27" d="M39.86,34.9c-0.64,0-1.1-0.46-1.1-1.1V11.21c0-0.64,0.46-1.1,1.1-1.1c0.64,0,1.1,0.46,1.1,1.1v22.5
			C40.96,34.35,40.41,34.9,39.86,34.9z"/>
            <linearGradient id="SVGID_28_" gradientUnits="userSpaceOnUse" x1="15.6116" y1="29.3016" x2="15.6116" y2="15.7103">
			<stop  offset="0" style="stop-color:#5363D2"/>
                <stop  offset="1" style="stop-color:#02CAE6"/>
		</linearGradient>
            <path class="st28" d="M15.61,29.3c-0.64,0-1.1-0.46-1.1-1.1V16.81c0-0.64,0.46-1.1,1.1-1.1s1.1,0.46,1.1,1.1v11.48
			C16.71,28.84,16.25,29.3,15.61,29.3z"/>
            <linearGradient id="SVGID_29_" gradientUnits="userSpaceOnUse" x1="59.2321" y1="24.8936" x2="59.2321" y2="20.2101">
			<stop  offset="0" style="stop-color:#5363D2"/>
                <stop  offset="1" style="stop-color:#02CAE6"/>
		</linearGradient>
            <path class="st29" d="M59.23,24.89c-0.64,0-1.1-0.46-1.1-1.1v-2.48c0-0.64,0.46-1.1,1.1-1.1s1.1,0.46,1.1,1.1v2.48
			C60.33,24.34,59.78,24.89,59.23,24.89z"/>
            <linearGradient id="SVGID_30_" gradientUnits="userSpaceOnUse" x1="73.7416" y1="26.7303" x2="73.7416" y2="18.3735">
			<stop  offset="0" style="stop-color:#5363D2"/>
                <stop  offset="1" style="stop-color:#02CAE6"/>
		</linearGradient>
            <path class="st30" d="M73.74,26.73c-0.64,0-1.1-0.46-1.1-1.1v-6.15c0-0.64,0.46-1.1,1.1-1.1c0.64,0,1.1,0.46,1.1,1.1v6.15
			C74.84,26.18,74.29,26.73,73.74,26.73z"/>
            <linearGradient id="SVGID_31_" gradientUnits="userSpaceOnUse" x1="78.5169" y1="25.0773" x2="78.5169" y2="19.8428">
			<stop  offset="0" style="stop-color:#5363D2"/>
                <stop  offset="1" style="stop-color:#02CAE6"/>
		</linearGradient>
            <path class="st31" d="M78.52,25.08c-0.64,0-1.1-0.46-1.1-1.1v-3.03c0-0.64,0.46-1.1,1.1-1.1c0.64,0,1.1,0.46,1.1,1.1v3.03
			C79.62,24.62,79.16,25.08,78.52,25.08z"/>
            <linearGradient id="SVGID_32_" gradientUnits="userSpaceOnUse" x1="83.3841" y1="23.608" x2="83.3841" y2="21.404">
			<stop  offset="0" style="stop-color:#5363D2"/>
                <stop  offset="1" style="stop-color:#02CAE6"/>
		</linearGradient>
            <path class="st32" d="M83.38,23.61c-0.64,0-1.1-0.46-1.1-1.1l0,0c0-0.64,0.46-1.1,1.1-1.1c0.64,0,1.1,0.46,1.1,1.1
			C84.49,23.15,84.03,23.61,83.38,23.61z"/>
            <linearGradient id="SVGID_33_" gradientUnits="userSpaceOnUse" x1="1.102" y1="24.3426" x2="1.102" y2="20.6693">
			<stop  offset="0" style="stop-color:#5363D2"/>
                <stop  offset="1" style="stop-color:#02CAE6"/>
		</linearGradient>
            <path class="st33" d="M1.1,24.34c-0.64,0-1.1-0.46-1.1-1.1v-1.47c0-0.64,0.46-1.1,1.1-1.1s1.1,0.46,1.1,1.1v1.47
			C2.2,23.88,1.74,24.34,1.1,24.34z"/>
            <linearGradient id="SVGID_34_" gradientUnits="userSpaceOnUse" x1="10.7444" y1="25.3528" x2="10.7444" y2="19.751">
			<stop  offset="0" style="stop-color:#5363D2"/>
                <stop  offset="1" style="stop-color:#02CAE6"/>
		</linearGradient>
            <path class="st34" d="M10.74,25.35c-0.64,0-1.1-0.46-1.1-1.1v-3.4c0-0.64,0.46-1.1,1.1-1.1s1.1,0.46,1.1,1.1v3.4
			C11.85,24.8,11.39,25.35,10.74,25.35z"/>
            <linearGradient id="SVGID_35_" gradientUnits="userSpaceOnUse" x1="5.9691" y1="26.8221" x2="5.9691" y2="18.2817">
			<stop  offset="0" style="stop-color:#5363D2"/>
                <stop  offset="1" style="stop-color:#02CAE6"/>
		</linearGradient>
            <path class="st35" d="M5.97,26.82c-0.64,0-1.1-0.46-1.1-1.1v-6.34c0-0.64,0.46-1.1,1.1-1.1s1.1,0.46,1.1,1.1v6.34
			C7.07,26.27,6.52,26.82,5.97,26.82z"/>
            <linearGradient id="SVGID_36_" gradientUnits="userSpaceOnUse" x1="68.8745" y1="24.3426" x2="68.8745" y2="20.5775">
			<stop  offset="0" style="stop-color:#5363D2"/>
                <stop  offset="1" style="stop-color:#02CAE6"/>
		</linearGradient>
            <path class="st36" d="M68.87,24.34c-0.64,0-1.1-0.46-1.1-1.1v-1.56c0-0.64,0.46-1.1,1.1-1.1c0.64,0,1.1,0.46,1.1,1.1v1.56
			C69.98,23.88,69.52,24.34,68.87,24.34z"/>
	</g>
        <g class="st37">
		
			<linearGradient id="SVGID_37_" gradientUnits="userSpaceOnUse" x1="63.8242" y1="33.6887" x2="63.8242" y2="8.8939" gradientTransform="matrix(1 3.774713e-03 -3.774713e-03 1 0.2638 -0.6022)">
			<stop  offset="0" style="stop-color:#5363D2"/>
                <stop  offset="1" style="stop-color:#00E592"/>
		</linearGradient>
            <path class="st38" d="M62.86,32.13l0.08-22.5c0-0.64,0.46-1.1,1.11-1.1c0.64,0,1.1,0.46,1.1,1.11l-0.09,22.59
			c0,0.64-0.46,1.1-1.11,1.1C63.41,33.33,62.86,32.77,62.86,32.13z"/>

            <linearGradient id="SVGID_38_" gradientUnits="userSpaceOnUse" x1="59.0439" y1="40.117" x2="59.0439" y2="2.4656" gradientTransform="matrix(1 3.774713e-03 -3.774713e-03 1 0.2638 -0.6022)">
			<stop  offset="0" style="stop-color:#5363D2"/>
                <stop  offset="1" style="stop-color:#00E592"/>
		</linearGradient>
            <path class="st39" d="M58.06,38.54L58.2,3.18c0-0.64,0.46-1.1,1.11-1.1c0.64,0,1.1,0.46,1.1,1.11l-0.13,35.45
			c0,0.64-0.46,1.1-1.11,1.1C58.52,39.73,57.97,39.18,58.06,38.54z"/>

            <linearGradient id="SVGID_39_" gradientUnits="userSpaceOnUse" x1="39.6722" y1="27.1686" x2="39.6722" y2="15.414" gradientTransform="matrix(1 3.774713e-03 -3.774713e-03 1 0.2638 -0.6022)">
			<stop  offset="0" style="stop-color:#5363D2"/>
                <stop  offset="1" style="stop-color:#00E592"/>
		</linearGradient>
            <path class="st40" d="M38.74,25.7l0.04-9.64c0-0.64,0.46-1.1,1.11-1.1c0.64,0,1.1,0.46,1.1,1.11l-0.04,9.55
			c0,0.64-0.46,1.1-1.11,1.1C39.19,26.71,38.73,26.25,38.74,25.7z"/>

            <linearGradient id="SVGID_40_" gradientUnits="userSpaceOnUse" x1="34.8051" y1="30.6582" x2="34.8051" y2="11.9244" gradientTransform="matrix(1 3.774713e-03 -3.774713e-03 1 0.2638 -0.6022)">
			<stop  offset="0" style="stop-color:#5363D2"/>
                <stop  offset="1" style="stop-color:#00E592"/>
		</linearGradient>
            <path class="st41" d="M33.86,29.08l0.06-16.53c0-0.64,0.46-1.1,1.11-1.1c0.64,0,1.1,0.46,1.1,1.11l-0.06,16.53
			c0,0.64-0.46,1.1-1.11,1.1C34.31,30.18,33.85,29.72,33.86,29.08z"/>

            <linearGradient id="SVGID_41_" gradientUnits="userSpaceOnUse" x1="29.938" y1="25.6074" x2="29.938" y2="17.067" gradientTransform="matrix(1 3.774713e-03 -3.774713e-03 1 0.2638 -0.6022)">
			<stop  offset="0" style="stop-color:#5363D2"/>
                <stop  offset="1" style="stop-color:#00E592"/>
		</linearGradient>
            <path class="st42" d="M29.01,24.01l0.02-6.34c0-0.64,0.46-1.1,1.11-1.1s1.1,0.46,1.1,1.11l-0.02,6.34c0,0.64-0.46,1.1-1.11,1.1
			C29.55,25.12,29.01,24.56,29.01,24.01z"/>

            <linearGradient id="SVGID_42_" gradientUnits="userSpaceOnUse" x1="20.2955" y1="24.6891" x2="20.2955" y2="17.8935" gradientTransform="matrix(1 3.774713e-03 -3.774713e-03 1 0.2638 -0.6022)">
			<stop  offset="0" style="stop-color:#5363D2"/>
                <stop  offset="1" style="stop-color:#00E592"/>
		</linearGradient>
            <path class="st43" d="M19.37,23.06l0.02-4.59c0-0.64,0.46-1.1,1.11-1.1c0.64,0,1.1,0.46,1.1,1.11l-0.02,4.59
			c0,0.64-0.46,1.1-1.11,1.1C19.82,24.16,19.37,23.61,19.37,23.06z"/>

            <linearGradient id="SVGID_43_" gradientUnits="userSpaceOnUse" x1="54.1818" y1="34.3315" x2="54.1818" y2="8.2511" gradientTransform="matrix(1 3.774713e-03 -3.774713e-03 1 0.2638 -0.6022)">
			<stop  offset="0" style="stop-color:#5363D2"/>
                <stop  offset="1" style="stop-color:#00E592"/>
		</linearGradient>
            <path class="st44" d="M53.22,32.83l0.09-23.88c0-0.64,0.46-1.1,1.11-1.1c0.64,0,1.1,0.46,1.1,1.11l-0.09,23.88
			c0,0.64-0.46,1.1-1.11,1.1C53.67,33.93,53.22,33.47,53.22,32.83z"/>

            <linearGradient id="SVGID_44_" gradientUnits="userSpaceOnUse" x1="49.3147" y1="30.6582" x2="49.3147" y2="11.9244" gradientTransform="matrix(1 3.774713e-03 -3.774713e-03 1 0.2638 -0.6022)">
			<stop  offset="0" style="stop-color:#5363D2"/>
                <stop  offset="1" style="stop-color:#00E592"/>
		</linearGradient>
            <path class="st45" d="M48.36,29.14l0.06-16.53c0-0.64,0.46-1.1,1.11-1.1c0.64,0,1.1,0.46,1.1,1.11l-0.06,16.53
			c0,0.64-0.46,1.1-1.11,1.1C48.82,30.24,48.36,29.78,48.36,29.14z"/>

            <linearGradient id="SVGID_45_" gradientUnits="userSpaceOnUse" x1="44.4475" y1="33.6887" x2="44.4475" y2="8.8939" gradientTransform="matrix(1 3.774713e-03 -3.774713e-03 1 0.2638 -0.6022)">
			<stop  offset="0" style="stop-color:#5363D2"/>
                <stop  offset="1" style="stop-color:#00E592"/>
		</linearGradient>
            <path class="st46" d="M43.49,32.06l0.08-22.5c0-0.64,0.46-1.1,1.11-1.1c0.64,0,1.1,0.46,1.1,1.11l-0.09,22.59
			c0,0.64-0.46,1.1-1.11,1.1C44.03,33.25,43.48,32.7,43.49,32.06z"/>

            <linearGradient id="SVGID_46_" gradientUnits="userSpaceOnUse" x1="68.6914" y1="28.0869" x2="68.6914" y2="14.4957" gradientTransform="matrix(1 3.774713e-03 -3.774713e-03 1 0.2638 -0.6022)">
			<stop  offset="0" style="stop-color:#5363D2"/>
                <stop  offset="1" style="stop-color:#00E592"/>
		</linearGradient>
            <path class="st47" d="M67.75,26.73l0.04-11.48c0-0.64,0.46-1.1,1.11-1.1c0.64,0,1.1,0.46,1.1,1.11l-0.04,11.39
			c0,0.64-0.46,1.1-1.11,1.1C68.21,27.74,67.75,27.28,67.75,26.73z"/>

            <linearGradient id="SVGID_47_" gradientUnits="userSpaceOnUse" x1="25.0708" y1="23.6789" x2="25.0708" y2="18.9955" gradientTransform="matrix(1 3.774713e-03 -3.774713e-03 1 0.2638 -0.6022)">
			<stop  offset="0" style="stop-color:#5363D2"/>
                <stop  offset="1" style="stop-color:#00E592"/>
		</linearGradient>
            <path class="st48" d="M24.15,22.07l0.01-2.48c0-0.64,0.46-1.1,1.11-1.1s1.1,0.46,1.1,1.11l-0.01,2.48c0,0.64-0.46,1.1-1.11,1.1
			C24.69,23.17,24.15,22.62,24.15,22.07z"/>

            <linearGradient id="SVGID_48_" gradientUnits="userSpaceOnUse" x1="10.5613" y1="25.5156" x2="10.5613" y2="17.1588" gradientTransform="matrix(1 3.774713e-03 -3.774713e-03 1 0.2638 -0.6022)">
			<stop  offset="0" style="stop-color:#5363D2"/>
                <stop  offset="1" style="stop-color:#00E592"/>
		</linearGradient>
            <path class="st49" d="M9.63,23.85l0.02-6.15c0-0.64,0.46-1.1,1.11-1.1s1.1,0.46,1.1,1.11l-0.02,6.15c0,0.64-0.46,1.1-1.11,1.1
			C10.18,24.95,9.63,24.4,9.63,23.85z"/>

            <linearGradient id="SVGID_49_" gradientUnits="userSpaceOnUse" x1="5.786" y1="23.8626" x2="5.786" y2="18.6281" gradientTransform="matrix(1 3.774713e-03 -3.774713e-03 1 0.2638 -0.6022)">
			<stop  offset="0" style="stop-color:#5363D2"/>
                <stop  offset="1" style="stop-color:#00E592"/>
		</linearGradient>
            <path class="st50" d="M4.86,22.18l0.01-3.03c0-0.64,0.46-1.1,1.11-1.1s1.1,0.46,1.1,1.11l-0.01,3.03c0,0.64-0.46,1.1-1.11,1.1
			S4.86,22.82,4.86,22.18z"/>

            <linearGradient id="SVGID_50_" gradientUnits="userSpaceOnUse" x1="0.9188" y1="22.3933" x2="0.9188" y2="20.1893" gradientTransform="matrix(1 3.774713e-03 -3.774713e-03 1 0.2638 -0.6022)">
			<stop  offset="0" style="stop-color:#5363D2"/>
                <stop  offset="1" style="stop-color:#00E592"/>
		</linearGradient>
            <path class="st51" d="M0,20.69c0-0.64,0.46-1.1,1.11-1.1s1.1,0.46,1.1,1.11l0,0c0,0.64-0.46,1.1-1.11,1.1S0,21.33,0,20.69z"/>

            <linearGradient id="SVGID_51_" gradientUnits="userSpaceOnUse" x1="83.2009" y1="23.128" x2="83.2009" y2="19.4546" gradientTransform="matrix(1 3.774713e-03 -3.774713e-03 1 0.2638 -0.6022)">
			<stop  offset="0" style="stop-color:#5363D2"/>
                <stop  offset="1" style="stop-color:#00E592"/>
		</linearGradient>
            <path class="st52" d="M82.28,21.73l0.01-1.47c0-0.64,0.46-1.1,1.11-1.1s1.1,0.46,1.1,1.11l-0.01,1.47c0,0.64-0.46,1.1-1.11,1.1
			C82.73,22.84,82.28,22.38,82.28,21.73z"/>

            <linearGradient id="SVGID_52_" gradientUnits="userSpaceOnUse" x1="73.5585" y1="24.1381" x2="73.5585" y2="18.5363" gradientTransform="matrix(1 3.774713e-03 -3.774713e-03 1 0.2638 -0.6022)">
			<stop  offset="0" style="stop-color:#5363D2"/>
                <stop  offset="1" style="stop-color:#00E592"/>
		</linearGradient>
            <path class="st53" d="M72.63,22.71l0.01-3.4c0-0.64,0.46-1.1,1.11-1.1c0.64,0,1.1,0.46,1.1,1.11l-0.01,3.4
			c0,0.64-0.46,1.1-1.11,1.1C73.09,23.81,72.63,23.26,72.63,22.71z"/>

            <linearGradient id="SVGID_53_" gradientUnits="userSpaceOnUse" x1="78.3338" y1="25.6074" x2="78.3338" y2="17.067" gradientTransform="matrix(1 3.774713e-03 -3.774713e-03 1 0.2638 -0.6022)">
			<stop  offset="0" style="stop-color:#5363D2"/>
                <stop  offset="1" style="stop-color:#00E592"/>
		</linearGradient>
            <path class="st54" d="M77.4,24.19l0.02-6.34c0-0.64,0.46-1.1,1.11-1.1s1.1,0.46,1.1,1.11l-0.02,6.34c0,0.64-0.46,1.1-1.11,1.1
			C77.95,25.3,77.4,24.75,77.4,24.19z"/>

            <linearGradient id="SVGID_54_" gradientUnits="userSpaceOnUse" x1="15.4284" y1="23.128" x2="15.4284" y2="19.3628" gradientTransform="matrix(1 3.774713e-03 -3.774713e-03 1 0.2638 -0.6022)">
			<stop  offset="0" style="stop-color:#5363D2"/>
                <stop  offset="1" style="stop-color:#00E592"/>
		</linearGradient>
            <path class="st55" d="M14.51,21.48l0.01-1.56c0-0.64,0.46-1.1,1.11-1.1s1.1,0.46,1.1,1.11l-0.01,1.56c0,0.64-0.46,1.1-1.11,1.1
			S14.5,22.12,14.51,21.48z"/>
	</g>
</g>
</svg>
