<!-- Generator: Adobe Illustrator 24.0.2, SVG Export Plug-In  -->
<svg version="1.1" xmlns="http://www.w3.org/2000/svg" xmlns:xlink="http://www.w3.org/1999/xlink" x="0px" y="0px" width="14.67px"
     height="17.63px" viewBox="0 0 14.67 17.63" style="enable-background:new 0 0 14.67 17.63;" xml:space="preserve">
<style type="text/css">
	.st0{fill:#FFA412;}
</style>
    <defs>
</defs>
    <g>
	<g>
		<path class="st0" d="M13.73,6.67c0.59-0.71,0.94-1.61,0.94-2.6C14.67,1.83,12.85,0,10.6,0C9.61,0,8.71,0.36,8,0.94L13.73,6.67z"/>
        <path class="st0" d="M7.48,1.47c-0.59,0.71-0.94,1.61-0.94,2.6c0,2.24,1.83,4.07,4.07,4.07c0.99,0,1.9-0.36,2.6-0.94L7.48,1.47z"
        />
	</g>
        <g>
		<path class="st0" d="M2.46,17.63c-0.63,0-1.26-0.24-1.74-0.72c-0.96-0.96-0.96-2.52,0-3.48l1.11-1.11c0.14-0.14,0.38-0.14,0.52,0
			s0.14,0.38,0,0.52l-1.11,1.11c-0.67,0.67-0.67,1.77,0,2.44s1.77,0.67,2.44,0l5.55-5.55c0.96-0.96,2.52-0.96,3.48,0
			s0.96,2.52,0,3.48l-2.59,2.59c-0.14,0.14-0.38,0.14-0.52,0s-0.14-0.38,0-0.52l2.59-2.59c0.67-0.67,0.67-1.77,0-2.44
			c-0.67-0.67-1.77-0.67-2.44,0L4.2,16.91C3.72,17.39,3.09,17.63,2.46,17.63z"/>
	</g>
        <path class="st0" d="M10.87,7.51l-3.7-3.7C7.09,3.73,6.98,3.69,6.87,3.7C6.77,3.71,6.67,3.76,6.6,3.85L6.43,4.09
		c-1.06,1.45-3.87,5.28-5.71,7.12c-0.07,0.07-0.11,0.16-0.11,0.26s0.04,0.19,0.11,0.26l2.22,2.22c0.07,0.07,0.17,0.11,0.26,0.11
		c0.09,0,0.19-0.04,0.26-0.11c1.57-1.57,4.6-3.85,6.35-5.14C8.86,8.65,7.94,8.21,7.2,7.47c-0.14-0.14-0.14-0.38,0-0.52
		s0.38-0.14,0.52,0c0.83,0.83,1.93,1.21,3.02,1.18l0.08-0.06c0.09-0.06,0.14-0.16,0.15-0.27C10.98,7.69,10.94,7.58,10.87,7.51z
		 M6.42,8.77L5.68,9.51C5.61,9.58,5.52,9.62,5.42,9.62c-0.09,0-0.19-0.04-0.26-0.11c-0.14-0.14-0.14-0.38,0-0.52L5.9,8.25
		c0.14-0.14,0.38-0.14,0.52,0S6.57,8.63,6.42,8.77z"/>
</g>
</svg>
